#!OML:ASF F:\VICON\USERDATA\Patient Classification 1\PLAYGROUND\JustinFriday\JustinFriday.ASF
:FULLY-SPECIFIED
:DEGREES
2182
root 12.8569 9.69081 28.5032 -222.133 -179.064 -182.017
lowerback 32.4952 1.7386 0.356402
upperback 11.7509 2.64452 3.91003
thorax -4.50726 1.22863 3.24699
lowerneck -11.9829 -11.715 -8.69981
upperneck -5.68258 -14.5006 14.6492
head 1.98418 -6.85001 4.87402
rclavicle -5.07895e-014 -3.02153e-014
rhumerus 81.9635 5.61295 -76.8158
rradius 15.7229
rwrist 31.6532
rhand -1.62413 -18.8114
rfingers 7.12502
rthumb 24.0339 -47.3266
lclavicle -5.07895e-014 -3.02153e-014
lhumerus 78.3579 -3.83686 67.2589
lradius 17.2478
lwrist -18.7579
lhand 8.99925 -12.0074
lfingers 7.12502
lthumb 34.1766 14.737
rfemur -48.2953 -0.760159 27.9773
rtibia 36.3334
rfoot -0.244319 0.762749
rtoes -27.0699
lfemur -46.2455 5.6734 -19.6273
ltibia 38.647
lfoot -11.3577 -5.88139
ltoes 6.3132
2183
root 12.8596 9.66112 28.4871 -221.954 -178.887 -182.229
lowerback 32.4994 1.73483 0.691111
upperback 11.6746 2.75605 4.0521
thorax -4.59585 1.2888 3.1722
lowerneck -11.505 -11.8613 -8.90551
upperneck -5.99344 -14.6804 14.8929
head 1.87607 -6.95875 4.99051
rclavicle -8.00108e-015 -7.15625e-015
rhumerus 82.1442 5.4874 -77.8243
rradius 15.5186
rwrist 33.1822
rhand -1.29222 -18.5807
rfingers 7.12502
rthumb 24.3521 -47.0535
lclavicle -8.00108e-015 -7.15625e-015
lhumerus 78.6554 -3.78804 68.1508
lradius 16.842
lwrist -19.577
lhand 8.99498 -12.3492
lfingers 7.12502
lthumb 34.1725 14.3961
rfemur -48.6712 -0.797945 28.3229
rtibia 36.4221
rfoot -0.175015 0.939855
rtoes -27.0612
lfemur -46.4262 5.77011 -19.4022
ltibia 38.3445
lfoot -11.1805 -5.95895
ltoes 6.1038
2184
root 12.8623 9.62788 28.4767 -221.735 -179.064 -181.936
lowerback 32.5164 1.9215 0.405677
upperback 11.7876 2.90866 4.09686
thorax -4.49736 1.35685 3.33531
lowerneck -12.1695 -12.1521 -9.22972
upperneck -5.76464 -15.0143 15.2393
head 2.13964 -7.07802 5.06227
rclavicle -2.78299e-015 1.27222e-014
rhumerus 82.7109 5.20683 -79.2027
rradius 15.1937
rwrist 35.5069
rhand -1.11788 -17.9357
rfingers 7.12502
rthumb 24.5192 -46.3859
lclavicle -2.78299e-015 1.27222e-014
lhumerus 79.23 -3.74612 67.2949
lradius 17.0653
lwrist -18.8014
lhand 8.90308 -12.1487
lfingers 7.12502
lthumb 34.0852 14.6161
rfemur -49.0549 -0.628202 27.896
rtibia 36.3545
rfoot -0.0157687 1.00152
rtoes -27.0605
lfemur -46.7292 5.9232 -19.8755
ltibia 38.2541
lfoot -11.1812 -6.02906
ltoes 6.32614
2185
root 12.8663 9.59211 28.4685 -221.706 -178.843 -182.059
lowerback 32.5702 1.96485 0.610264
upperback 12.0078 3.02922 4.25191
thorax -4.27421 1.41539 3.35162
lowerneck -12.7873 -12.3103 -9.50344
upperneck -5.70161 -15.1626 15.6825
head 2.3339 -7.10944 5.18163
rclavicle -7.51655e-015 4.77083e-015
rhumerus 83.3605 5.03653 -79.6042
rradius 14.991
rwrist 36.533
rhand -1.5646 -17.511
rfingers 7.12502
rthumb 24.0909 -46.0187
lclavicle -7.51655e-015 4.77083e-015
lhumerus 79.63 -3.5898 64.6563
lradius 17.8949
lwrist -16.3653
lhand 8.90044 -11.551
lfingers 7.12502
lthumb 34.0827 15.2144
rfemur -49.1847 -0.584676 28.1739
rtibia 36.3059
rfoot -0.059537 0.99875
rtoes -27.2595
lfemur -46.839 5.8467 -19.5552
ltibia 38.2211
lfoot -11.2259 -5.84555
ltoes 7.25939
2186
root 12.8711 9.56257 28.4645 -221.5 -178.483 -182.412
lowerback 32.4382 1.88857 1.10384
upperback 12.0545 3.08545 4.40667
thorax -4.15044 1.45117 3.22306
lowerneck -12.6228 -12.3147 -9.59112
upperneck -6.09672 -15.1332 15.9588
head 2.22261 -7.10642 5.29921
rclavicle 1.42876e-015 -5.56597e-015
rhumerus 83.8589 4.97194 -78.94
rradius 14.7577
rwrist 35.7481
rhand -2.28262 -17.7746
rfingers 7.12502
rthumb 23.4023 -46.3717
lclavicle 1.42876e-015 -5.56597e-015
lhumerus 80.213 -3.19349 70.8182
lradius 16.3777
lwrist -22.4633
lhand 8.9863 -12.8291
lfingers 7.12502
lthumb 34.1643 13.9181
rfemur -49.4906 -0.51767 28.714
rtibia 36.3331
rfoot -0.138274 0.952074
rtoes -27.4597
lfemur -47.1489 6.03782 -19.1167
ltibia 38.1377
lfoot -11.1576 -6.0548
ltoes 5.93136
2187
root 12.872 9.53492 28.4568 -221.316 -179.04 -181.859
lowerback 32.4727 2.00834 0.378259
upperback 11.8667 3.01757 4.23397
thorax -4.40248 1.40629 3.46894
lowerneck -11.9596 -12.2798 -9.49701
upperneck -6.44355 -15.1117 15.9489
head 2.00816 -7.13683 5.32987
rclavicle -4.00054e-014 -2.3059e-014
rhumerus 83.9621 4.97037 -78.1866
rradius 14.6182
rwrist 35.0103
rhand -2.34218 -18.0909
rfingers 7.12502
rthumb 23.3452 -46.6953
lclavicle -4.00054e-014 -2.3059e-014
lhumerus 80.1541 -3.17238 71.4806
lradius 16.2019
lwrist -23.0288
lhand 9.18318 -12.8596
lfingers 7.12502
lthumb 34.3512 13.8455
rfemur -49.8472 -0.315439 27.689
rtibia 36.3023
rfoot 0.125654 0.803131
rtoes -27.307
lfemur -47.4153 6.35906 -20.2501
ltibia 38.0779
lfoot -11.1898 -6.50121
ltoes 5.58774
2188
root 12.8718 9.50827 28.4454 -221.45 -179.505 -181.333
lowerback 33.1367 2.14244 -0.299963
upperback 11.2651 2.97322 4.14446
thorax -4.85081 1.3591 3.49972
lowerneck -10.7658 -12.1511 -9.24091
upperneck -6.84428 -15.0152 15.9644
head 1.67821 -7.15761 5.38272
rclavicle -6.31141e-015 -1.19271e-014
rhumerus 83.5988 5.02611 -78.8139
rradius 14.4705
rwrist 35.5963
rhand -2.30974 -18.0184
rfingers 7.12502
rthumb 23.3763 -46.6188
lclavicle -6.31141e-015 -1.19271e-014
lhumerus 79.8123 -3.30323 70.9289
lradius 16.2323
lwrist -22.5544
lhand 9.33629 -12.8012
lfingers 7.12502
lthumb 34.4966 13.871
rfemur -49.7963 -0.233192 26.8378
rtibia 36.1887
rfoot 0.260067 0.756455
rtoes -27.3143
lfemur -47.3065 6.42254 -21.0757
ltibia 38.094
lfoot -11.4071 -6.55848
ltoes 5.17199
